<svg width="100" height="100" viewBox="0 0 100 100" fill="none" xmlns="http://www.w3.org/2000/svg">
<rect width="100" height="100" rx="50" fill="#C4C4C4"/>
<rect width="100" height="100" rx="50" fill="url(#paint0_linear_65_36)"/>
<path d="M49.447 46.5677C39.7093 49.1769 29.9452 67.9629 32.4969 77.486C33.6462 81.775 37.6204 83.4565 43.13 81.9802C49.119 80.3754 52.2478 76.2336 57.0511 74.9465C61.896 73.6483 66.6876 75.6679 72.624 74.0773C78.1336 72.601 80.7346 69.1577 79.5853 64.8687C77.0336 55.3456 59.1847 43.9584 49.447 46.5677ZM30.9714 49.8572C28.5551 45.9406 23.8872 44.2356 20.5455 46.0478C17.2038 47.8599 16.4543 52.5036 18.8706 56.4202C21.287 60.3368 25.9548 62.0418 29.2965 60.2296C32.6382 58.4175 33.3877 53.7738 30.9714 49.8572V49.8572ZM40.676 44.5198C44.202 42.5028 44.7238 36.8571 41.8421 31.9101C38.9604 26.963 33.7663 24.589 30.2403 26.6059C26.7143 28.6229 26.1925 34.2685 29.0742 39.2156C31.9559 44.1627 37.1515 46.5376 40.676 44.5198ZM74.2156 31.6682C70.4155 31.7697 67.2267 35.5799 67.0912 40.1802C66.9569 44.7803 69.9279 48.4271 73.7279 48.3256C77.528 48.2241 80.7168 44.414 80.8523 39.8136C80.9866 35.2136 78.0156 31.5668 74.2156 31.6682V31.6682ZM56.019 40.4086C60.0811 40.3924 63.3923 35.7393 63.4144 30.0142C63.4364 24.2891 60.1621 19.6619 56.0996 19.6769C52.0372 19.6919 48.7263 24.3462 48.7042 30.0714C48.6822 35.7965 51.9569 40.4249 56.019 40.4086V40.4086Z" fill="white"/>
<defs>
<linearGradient id="paint0_linear_65_36" x1="100" y1="56.1225" x2="-2.21112" y2="55.7183" gradientUnits="userSpaceOnUse">
<stop stop-color="#FF5C00"/>
<stop offset="0.565625" stop-color="#FF00F5"/>
<stop offset="1" stop-color="#AD00FF"/>
</linearGradient>
</defs>
</svg>