<svg width="27" height="26" viewBox="0 0 27 26" fill="none" xmlns="http://www.w3.org/2000/svg">
<path d="M14 22.8958C13.3441 22.8958 12.8125 23.4275 12.8125 24.0833C12.8125 24.7392 13.3441 25.2708 14 25.2708H23.5C25.0303 25.2708 26.2708 24.0303 26.2708 22.5V3.49999C26.2708 1.9697 25.0303 0.729156 23.5 0.729156H14C13.3441 0.729156 12.8125 1.26082 12.8125 1.91666C12.8125 2.5725 13.3441 3.10416 14 3.10416L23.5 3.10416C23.7186 3.10416 23.8958 3.28138 23.8958 3.49999V22.5C23.8958 22.7186 23.7186 22.8958 23.5 22.8958H14Z" fill="white"/>
<path fill-rule="evenodd" clip-rule="evenodd" d="M0.145813 14.7658C0.145813 15.8588 1.03191 16.7449 2.12498 16.7449H9.42826C9.43859 16.8612 9.4494 16.9774 9.46069 17.0936L9.54624 17.9737C9.67675 19.3166 11.1027 20.1208 12.3194 19.5377C14.9069 18.2976 17.4064 16.4367 19.3911 14.3645C20.1261 13.5971 20.1261 12.3869 19.3911 11.6195L19.234 11.4555C17.2493 9.38331 14.9069 7.68638 12.3194 6.44632C11.1027 5.86324 9.67675 6.66744 9.54624 8.01027L9.46069 8.89042C9.4494 9.00661 9.43859 9.12284 9.42826 9.2391L2.12498 9.2391C1.03192 9.2391 0.145813 10.1252 0.145813 11.2183V14.7658ZM11.7092 15.4236C11.6419 14.8267 11.1362 14.3699 10.5293 14.3699H2.52081V11.6141H10.5293C11.1564 11.6141 11.6754 11.1264 11.7145 10.5005C11.7432 10.04 11.7799 9.57978 11.8246 9.12017L11.8494 8.86471C13.9154 9.92941 15.7957 11.3231 17.4163 12.992C16.7397 13.6888 16.0178 14.3377 15.2559 14.9346C14.1932 15.7674 13.0528 16.4991 11.8494 17.1193L11.8246 16.8638C11.7799 16.4042 11.7432 15.944 11.7145 15.4835C11.7132 15.4634 11.7115 15.4434 11.7092 15.4236Z" fill="white"/>
</svg>
