<svg width="38" height="38" viewBox="0 0 38 38" fill="none" xmlns="http://www.w3.org/2000/svg">
<path d="M19 28.8958C18.3442 28.8958 17.8125 29.4275 17.8125 30.0833C17.8125 30.7391 18.3442 31.2708 19 31.2708H28.5C30.0303 31.2708 31.2709 30.0302 31.2709 28.5V9.49996C31.2709 7.96967 30.0303 6.72913 28.5 6.72913H19C18.3442 6.72913 17.8125 7.26079 17.8125 7.91663C17.8125 8.57246 18.3442 9.10413 19 9.10413L28.5 9.10413C28.7187 9.10413 28.8959 9.28135 28.8959 9.49996V28.5C28.8959 28.7186 28.7187 28.8958 28.5 28.8958H19Z" fill="white"/>
<path fill-rule="evenodd" clip-rule="evenodd" d="M22.9632 22.7449C24.0563 22.7449 24.9424 21.8588 24.9424 20.7657V17.2182C24.9424 16.1252 24.0563 15.2391 22.9632 15.2391L15.66 15.2391C15.6496 15.1228 15.6388 15.0066 15.6275 14.8904L15.542 14.0102C15.4115 12.6674 13.9855 11.8632 12.7689 12.4463C10.1813 13.6863 7.83889 15.3833 5.85419 17.4555L5.69712 17.6195C4.96213 18.3869 4.96213 19.5971 5.69712 20.3645L5.85419 20.5285C7.83889 22.6007 10.1813 24.2976 12.7689 25.5376C13.9855 26.1207 15.4115 25.3165 15.542 23.9737L15.6275 23.0935C15.6388 22.9774 15.6496 22.8611 15.66 22.7449H22.9632ZM14.559 20.3699C14.1372 20.3699 13.7644 20.5904 13.5535 20.9253C13.4508 21.0883 13.3865 21.2785 13.3738 21.4835C13.345 21.944 13.3083 22.4042 13.2637 22.8638L13.2388 23.1193C11.5984 22.2739 10.075 21.2211 8.7058 19.9878C8.35057 19.6679 8.00572 19.3358 7.67189 18.992C9.29249 17.3231 11.1729 15.9294 13.2388 14.8647L13.2637 15.1201C13.3083 15.5797 13.345 16.0399 13.3738 16.5005C13.4128 17.1264 13.9318 17.6141 14.559 17.6141H22.5674V20.3699H14.559Z" fill="white"/>
</svg>
