<svg width="512" height="490" viewBox="0 0 512 490" fill="none" xmlns="http://www.w3.org/2000/svg">
<path d="M0 342.873C0 238.609 0 134.668 0 30.8091C0 13.2966 13.5494 0 30.0477 0C170.801 0.162153 311.635 0.162152 452.389 0.0810754C467.931 0.0810754 481.48 14.1073 481.4 29.5119C481.241 95.3461 481.321 161.099 481.321 226.934C481.321 228.555 481.321 230.096 481.321 231.96C474.546 231.474 468.17 231.068 461.794 230.663C457.57 230.339 453.425 229.933 449.201 229.609C423.776 227.744 398.829 223.69 374.44 215.907C354.355 209.502 336.582 198.719 319.286 186.882C306.215 177.963 291.949 171.639 276.646 168.072C270.588 166.694 270.27 166.288 270.11 159.964C269.712 142.776 266.842 125.912 261.981 109.453C258.633 98.2649 254.728 87.0763 249.786 76.5364C243.012 62.1858 235.041 48.4838 224.361 36.6466C220.057 31.8631 215.993 26.6742 211.131 22.5393C205.392 17.7558 197.9 19.6205 193.676 25.9445C187.619 34.944 181.561 44.0246 175.345 53.2674C171.997 48.2406 168.729 42.7274 164.983 37.5385C158.368 28.4579 151.912 19.2962 144.659 10.7832C139.319 4.45922 130.313 5.59429 125.451 12.5669C114.771 28.0525 105.047 44.2679 97.3162 61.5372C87.8317 82.7793 80.26 104.67 76.5937 127.777C74.4417 141.398 73.0071 155.181 71.8115 168.883C71.0145 178.612 70.616 188.503 71.0145 198.313C71.413 208.691 72.6086 218.988 74.1229 229.285C76.1155 242.987 78.7456 256.608 81.2961 270.31C81.9337 273.796 82.651 277.444 84.1654 280.606C85.9188 284.417 84.8827 287.336 82.651 290.092C74.2823 300.146 66.3121 310.767 57.1464 320.01C42.8 334.441 25.6641 344.17 5.49944 347.9C4.62272 348.062 3.6663 347.9 2.70987 347.981C1.91285 348.062 1.11583 348.224 0 348.386C0 346.684 0 344.981 0 342.873ZM386.156 90.0762C389.185 90.0762 392.134 90.0762 395.322 90.0762C395.322 99.5621 395.242 108.399 395.322 117.318C395.402 123.561 400.104 129.155 405.683 129.804C412.378 130.533 417.958 126.885 419.153 120.237C419.95 115.777 419.87 111.237 419.95 106.697C420.11 101.265 419.95 95.7515 419.95 90.1572C428.08 90.1572 435.651 90.1572 443.223 90.1572C445.455 90.1572 447.766 90.4005 449.918 89.914C454.86 88.7789 459.642 82.2117 458.924 77.5093C457.888 70.4556 452.947 65.591 446.969 65.8342C442.187 65.9964 437.405 65.8342 432.623 65.8342C428.399 65.8342 424.254 65.8342 419.95 65.8342C419.95 56.5915 420.03 47.9163 419.95 39.3222C419.87 32.9171 414.929 26.7553 409.589 26.1067C402.974 25.377 397.235 29.1065 395.721 35.998C394.924 39.4843 395.322 43.2138 395.322 46.8623C395.242 53.1052 395.322 59.4292 395.322 65.8342C385.997 65.8342 377.23 65.9964 368.463 65.7532C360.572 65.591 356.268 72.5636 356.348 77.9957C356.428 83.6711 360.731 90.4005 368.622 90.0762C374.201 89.914 379.78 90.0762 386.156 90.0762Z" fill="white"/>
<path d="M136.53 437.327C129.596 442.76 122.582 447.705 116.206 453.3C103.055 464.894 90.3024 476.812 77.311 488.568C76.4343 489.379 74.9996 489.784 73.8041 489.784C58.6607 489.865 43.5173 490.27 28.3739 489.703C14.7449 489.216 3.26778 479.325 0.876723 465.461C0.318809 462.299 0.0797028 459.137 0.0797028 455.894C7.82311e-07 429.949 0.0797028 404.005 0.0797028 378.06C0.0797028 376.601 0.0797028 375.142 0.0797028 374.574C10.8395 371.655 21.3602 369.223 31.4823 365.818C43.1985 361.926 53.6395 355.44 63.124 347.332C69.6596 341.738 76.3546 336.063 82.0134 329.658C90.4618 320.091 98.432 309.956 105.924 299.578C119.394 281.093 131.827 261.797 145.616 243.554C159.324 225.474 175.424 209.745 196.147 200.016C205.472 195.638 215.196 192.314 225.557 191.422C233.447 190.773 241.258 189.638 249.149 189.881C264.053 190.368 278.877 192.314 292.267 199.53C300.955 204.151 309.403 209.583 317.613 215.015C338.973 229.204 362.007 239.338 386.874 244.77C400.822 247.851 415.009 249.959 429.196 252.067C437.564 253.365 446.092 253.932 454.62 254.5C465.619 255.229 476.698 255.635 487.776 256.121C494.471 256.445 501.246 256.77 507.941 256.932C510.093 257.013 510.97 257.743 511.049 260.013C511.607 278.823 506.427 295.281 493.993 309.794C478.292 328.198 458.685 339.063 436.05 345.468C422.182 349.44 408.154 351.792 393.888 353.413C379.461 355.035 365.035 356.413 350.609 358.359C331.879 360.872 313.07 363.061 294.499 366.548C268.835 371.331 243.729 378.547 219.579 388.925C192.879 400.438 167.853 414.95 143.862 431.409C141.391 433.274 139.08 435.219 136.53 437.327ZM262.459 254.905C272.182 260.256 271.704 271.282 272.581 276.958C273.697 284.255 278.399 287.903 284.855 287.66C291.231 287.498 296.253 283.849 296.412 275.823C296.492 272.255 296.252 268.607 295.615 265.04C293.941 256.527 290.673 248.662 284.696 242.176C274.016 230.582 260.546 226.204 245.562 228.069C238.867 228.879 231.853 231.636 226.035 235.284C214.797 242.338 208.819 253.527 206.588 266.58C205.87 270.715 205.95 275.336 206.827 279.39C208.022 284.984 214.319 288.552 219.579 287.741C225.477 286.768 230.18 281.255 230.339 275.336C230.498 269.418 231.933 263.742 235.759 259.121C240.939 253.121 252.257 250.04 262.459 254.905Z" fill="white"/>
<path d="M479.886 469.434C475.742 482.163 463.547 489.784 451.193 489.784C391.178 489.703 331.162 489.784 271.146 489.784C269.712 489.784 268.277 489.784 266.205 489.784C267.082 488.73 267.64 487.919 268.277 487.19C278.399 476.893 288.203 466.191 298.723 456.299C311.635 444.138 325.663 433.355 341.045 424.355C359.377 413.653 379.302 407.653 399.467 401.978C411.9 398.492 424.174 393.789 435.97 388.519C447.368 383.411 458.048 376.844 468.967 370.601C473.111 368.25 476.857 365.088 481.082 362.088C481.161 362.98 481.321 363.953 481.321 364.926C481.321 397.195 481.4 429.463 481.241 461.732C481.4 464.245 480.444 466.677 479.886 469.434Z" fill="white"/>
<path d="M140.913 45.6462C146.174 53.5917 151.593 61.0507 156.136 68.9962C165.222 84.8062 172.635 101.346 177.895 118.858C182.119 132.885 185.546 147.154 186.503 161.91C186.742 166.045 187.22 170.18 187.14 174.315C187.14 175.531 186.025 177.315 184.909 177.882C165.701 186.882 149.999 200.584 136.211 216.475C126.248 227.988 117.561 240.717 108.395 252.878C106.96 254.743 105.685 256.689 103.772 259.283C86.8752 181.449 94.4469 108.399 136.609 39.8897C138.363 42.1599 139.479 43.7814 140.913 45.6462Z" fill="white"/>
<path d="M207.225 489.784C175.504 489.784 144.261 489.784 111.742 489.784C116.285 485.649 119.792 482.001 123.777 478.758C133.102 471.136 142.428 463.353 152.231 456.381C163.469 448.273 174.946 440.571 186.822 433.436C197.342 427.112 208.421 421.761 219.42 416.329C236.157 408.14 253.612 401.654 271.704 397.357C286.848 393.789 302.15 390.546 317.453 387.709C326.46 386.006 335.546 385.438 344.632 384.303C355.551 383.006 366.39 381.628 377.31 380.331C378.904 380.168 380.498 380.331 382.251 380.898C377.947 382.276 373.564 383.574 369.26 385.114C362.166 387.627 355.073 390.141 348.139 393.06C332.358 399.789 318.011 409.032 304.223 419.328C297.368 424.436 290.912 430.112 284.536 435.868C277.682 442.192 270.987 448.759 264.531 455.408C255.684 464.488 246.997 473.731 238.229 482.893C233.766 487.595 228.904 490.757 221.97 489.784C217.268 489.298 212.406 489.784 207.225 489.784Z" fill="white"/>
<path d="M197.502 100.13C195.111 94.5354 192.64 89.2654 190.727 83.7522C190.169 82.0496 190.568 79.6173 191.365 77.9957C195.35 69.9692 199.654 62.1047 203.878 54.2403C204.197 53.5917 204.994 53.1863 205.95 52.2944C232.331 85.2926 244.287 123.236 246.439 164.748C234.643 165.721 223.166 166.694 211.45 167.667C210.334 144.56 204.914 122.264 197.502 100.13Z" fill="white"/>
</svg>
