<svg width="1920" height="720" viewBox="0 0 1920 720" fill="none" xmlns="http://www.w3.org/2000/svg">
<g clip-path="url(#clip0_3570_14843)">
<rect width="1920" height="720" fill="#140E1B" style="fill:#140E1B;fill:color(display-p3 0.0773 0.0549 0.1059);fill-opacity:1;"/>
<g opacity="0.45" filter="url(#filter0_f_3570_14843)">
<rect width="1755.3" height="300.411" transform="matrix(-0.998576 -0.0533538 -0.676701 -0.736258 2019.09 719.832)" fill="url(#paint0_linear_3570_14843)" fill-opacity="0.98" style=""/>
</g>
<g opacity="0.45" filter="url(#filter1_f_3570_14843)">
<rect width="1888.96" height="301.441" transform="matrix(-0.926024 0.377463 -0.926751 -0.375677 1891.59 7.24414)" fill="url(#paint1_linear_3570_14843)" fill-opacity="0.65" style=""/>
</g>
<path d="M447.641 410.409C447.641 356.597 447.641 302.952 447.641 249.348C447.641 240.31 454.656 233.447 463.198 233.447C536.076 233.531 608.994 233.531 681.872 233.489C689.919 233.489 696.934 240.728 696.893 248.679C696.81 282.657 696.852 316.593 696.852 350.571C696.852 351.408 696.852 352.203 696.852 353.166C693.344 352.915 690.043 352.705 686.741 352.496C684.554 352.329 682.408 352.119 680.221 351.952C667.057 350.99 654.14 348.897 641.513 344.88C631.113 341.575 621.911 336.009 612.956 329.9C606.188 325.297 598.801 322.033 590.878 320.192C587.742 319.48 587.577 319.271 587.494 316.007C587.288 307.136 585.802 298.432 583.285 289.938C581.552 284.163 579.53 278.389 576.971 272.949C573.463 265.542 569.337 258.471 563.807 252.361C561.579 249.892 559.474 247.214 556.957 245.08C553.985 242.611 550.106 243.574 547.919 246.838C544.783 251.482 541.647 256.169 538.428 260.939C536.695 258.345 535.003 255.5 533.063 252.821C529.638 248.135 526.295 243.406 522.54 239.013C519.775 235.749 515.112 236.335 512.595 239.933C507.065 247.926 502.03 256.295 498.028 265.208C493.117 276.171 489.196 287.469 487.298 299.395C486.184 306.425 485.441 313.538 484.822 320.61C484.409 325.632 484.203 330.737 484.409 335.8C484.616 341.156 485.235 346.47 486.019 351.785C487.051 358.856 488.412 365.886 489.733 372.958C490.063 374.758 490.434 376.641 491.218 378.273C492.126 380.239 491.59 381.746 490.434 383.168C486.101 388.357 481.975 393.839 477.229 398.609C469.801 406.058 460.929 411.079 450.488 413.004C450.034 413.088 449.539 413.004 449.044 413.046C448.631 413.087 448.218 413.171 447.641 413.255C447.641 412.376 447.641 411.497 447.641 410.409ZM647.579 279.937C649.147 279.937 650.674 279.937 652.325 279.937C652.325 284.833 652.283 289.394 652.325 293.997C652.366 297.219 654.801 300.106 657.689 300.441C661.156 300.818 664.044 298.935 664.663 295.503C665.076 293.202 665.035 290.858 665.076 288.515C665.159 285.712 665.076 282.866 665.076 279.979C669.285 279.979 673.206 279.979 677.126 279.979C678.281 279.979 679.478 280.104 680.592 279.853C683.151 279.267 685.627 275.878 685.256 273.451C684.719 269.811 682.161 267.3 679.066 267.425C676.59 267.509 674.113 267.425 671.637 267.425C669.45 267.425 667.304 267.425 665.076 267.425C665.076 262.655 665.117 258.178 665.076 253.742C665.035 250.436 662.476 247.256 659.711 246.921C656.286 246.545 653.315 248.47 652.531 252.026C652.118 253.826 652.325 255.751 652.325 257.634C652.283 260.856 652.325 264.12 652.325 267.425C647.496 267.425 642.957 267.509 638.418 267.383C634.332 267.3 632.104 270.898 632.145 273.702C632.186 276.631 634.415 280.104 638.5 279.937C641.389 279.853 644.277 279.937 647.579 279.937Z" fill="white" style="fill:white;fill-opacity:1;"/>
<path d="M518.331 459.159C514.741 461.962 511.109 464.515 507.808 467.402C500.999 473.386 494.396 479.537 487.67 485.605C487.216 486.023 486.473 486.232 485.854 486.232C478.013 486.274 470.172 486.483 462.332 486.191C455.275 485.94 449.333 480.834 448.095 473.679C447.806 472.047 447.682 470.415 447.682 468.741C447.641 455.351 447.682 441.961 447.682 428.57C447.682 427.817 447.682 427.064 447.682 426.771C453.253 425.264 458.7 424.009 463.941 422.252C470.007 420.243 475.413 416.895 480.324 412.711C483.708 409.824 487.174 406.894 490.104 403.589C494.479 398.651 498.605 393.42 502.484 388.064C509.458 378.524 515.896 368.565 523.035 359.149C530.133 349.818 538.469 341.7 549.199 336.679C554.027 334.419 559.061 332.703 564.426 332.243C568.511 331.908 572.556 331.323 576.641 331.448C584.358 331.699 592.034 332.703 598.966 336.428C603.465 338.813 607.839 341.616 612.089 344.42C623.149 351.743 635.075 356.973 647.95 359.777C655.172 361.367 662.517 362.455 669.863 363.543C674.196 364.213 678.612 364.506 683.027 364.798C688.722 365.175 694.458 365.384 700.194 365.635C703.661 365.803 707.168 365.97 710.635 366.054C711.749 366.096 712.203 366.472 712.244 367.644C712.533 377.352 709.851 385.846 703.413 393.337C695.283 402.835 685.132 408.443 673.412 411.748C666.231 413.799 658.969 415.012 651.582 415.849C644.112 416.686 636.643 417.398 629.174 418.402C619.476 419.699 609.737 420.829 600.122 422.628C586.834 425.097 573.835 428.821 561.331 434.177C547.507 440.119 534.549 447.61 522.127 456.104C520.848 457.067 519.651 458.071 518.331 459.159ZM583.533 365.008C588.567 367.769 588.32 373.46 588.773 376.39C589.351 380.156 591.786 382.039 595.129 381.913C598.43 381.829 601.03 379.946 601.112 375.804C601.154 373.962 601.03 372.079 600.7 370.238C599.833 365.845 598.141 361.786 595.046 358.438C589.516 352.454 582.542 350.195 574.784 351.157C571.318 351.575 567.686 352.998 564.674 354.881C558.855 358.522 555.76 364.296 554.604 371.033C554.233 373.167 554.274 375.553 554.728 377.645C555.347 380.532 558.607 382.373 561.331 381.955C564.385 381.453 566.819 378.607 566.902 375.553C566.985 372.498 567.727 369.569 569.708 367.184C572.391 364.087 578.25 362.497 583.533 365.008Z" fill="white" style="fill:white;fill-opacity:1;"/>
<path d="M696.109 475.729C693.963 482.299 687.649 486.232 681.253 486.232C650.179 486.191 619.105 486.232 588.031 486.232C587.288 486.232 586.545 486.232 585.472 486.232C585.926 485.688 586.215 485.27 586.545 484.893C591.786 479.579 596.862 474.056 602.309 468.95C608.994 462.674 616.257 457.108 624.222 452.464C633.713 446.94 644.03 443.844 654.47 440.914C660.908 439.115 667.263 436.688 673.371 433.968C679.272 431.332 684.802 427.942 690.455 424.72C692.601 423.507 694.541 421.875 696.728 420.327C696.769 420.787 696.852 421.289 696.852 421.791C696.852 438.446 696.893 455.1 696.81 471.754C696.893 473.051 696.398 474.307 696.109 475.729Z" fill="white" style="fill:white;fill-opacity:1;"/>
<path d="M520.601 257.006C523.324 261.107 526.13 264.956 528.483 269.057C533.187 277.217 537.025 285.753 539.748 294.792C541.936 302.031 543.71 309.396 544.205 317.012C544.329 319.146 544.577 321.28 544.535 323.414C544.535 324.042 543.958 324.962 543.38 325.255C533.435 329.9 525.305 336.972 518.166 345.173C513.007 351.115 508.509 357.685 503.764 363.962C503.021 364.924 502.361 365.928 501.37 367.267C492.622 327.096 496.542 289.394 518.372 254.035C519.28 255.207 519.858 256.044 520.601 257.006Z" fill="white" style="fill:white;fill-opacity:1;"/>
<path d="M554.935 486.232C538.51 486.232 522.334 486.232 505.497 486.232C507.849 484.098 509.665 482.215 511.728 480.542C516.556 476.608 521.385 472.591 526.46 468.992C532.279 464.808 538.222 460.833 544.37 457.15C549.818 453.886 555.554 451.125 561.248 448.321C569.914 444.095 578.952 440.747 588.32 438.529C596.16 436.688 604.083 435.014 612.007 433.55C616.67 432.671 621.374 432.378 626.079 431.792C631.732 431.123 637.345 430.411 642.998 429.742C643.824 429.658 644.649 429.742 645.557 430.035C643.328 430.746 641.059 431.416 638.83 432.211C635.158 433.508 631.485 434.805 627.895 436.311C619.724 439.785 612.296 444.555 605.156 449.869C601.607 452.505 598.265 455.435 594.964 458.406C591.415 461.669 587.948 465.059 584.606 468.49C580.025 473.177 575.527 477.947 570.987 482.676C568.676 485.103 566.159 486.735 562.569 486.232C560.134 485.981 557.617 486.232 554.935 486.232Z" fill="white" style="fill:white;fill-opacity:1;"/>
<path d="M549.9 285.126C548.662 282.238 547.383 279.519 546.392 276.673C546.103 275.794 546.31 274.539 546.723 273.702C548.786 269.559 551.014 265.5 553.201 261.442C553.366 261.107 553.779 260.898 554.274 260.437C567.934 277.468 574.124 297.052 575.238 318.476C569.13 318.978 563.188 319.48 557.122 319.983C556.544 308.057 553.738 296.549 549.9 285.126Z" fill="white" style="fill:white;fill-opacity:1;"/>
<path d="M788.091 312.909H812.364L838 375.455H839.091L864.727 312.909H889V406H869.909V345.409H869.136L845.045 405.545H832.045L807.955 345.182H807.182V406H788.091V312.909ZM915.527 432.182C913.072 432.182 910.769 431.985 908.618 431.591C906.497 431.227 904.739 430.758 903.345 430.182L907.709 415.727C909.981 416.424 912.027 416.803 913.845 416.864C915.693 416.924 917.284 416.5 918.618 415.591C919.981 414.682 921.087 413.136 921.936 410.955L923.072 408L898.027 336.182H918.39L932.845 387.455H933.572L948.163 336.182H968.663L941.527 413.545C940.224 417.303 938.451 420.576 936.209 423.364C933.997 426.182 931.193 428.348 927.8 429.864C924.406 431.409 920.315 432.182 915.527 432.182ZM984.951 406H963.86L995.997 312.909H1021.36L1053.45 406H1032.36L1009.04 334.182H1008.32L984.951 406ZM983.633 369.409H1033.45V384.773H983.633V369.409ZM1063.01 406V336.182H1081.79V348.364H1082.51C1083.79 344.03 1085.92 340.758 1088.92 338.545C1091.92 336.303 1095.38 335.182 1099.29 335.182C1100.25 335.182 1101.3 335.242 1102.42 335.364C1103.54 335.485 1104.53 335.652 1105.38 335.864V353.045C1104.47 352.773 1103.21 352.53 1101.6 352.318C1100 352.106 1098.53 352 1097.19 352C1094.35 352 1091.8 352.621 1089.56 353.864C1087.35 355.076 1085.59 356.773 1084.29 358.955C1083.01 361.136 1082.38 363.652 1082.38 366.5V406H1063.01ZM1154.74 336.182V350.727H1112.7V336.182H1154.74ZM1122.24 319.455H1141.61V384.545C1141.61 386.333 1141.88 387.727 1142.43 388.727C1142.97 389.697 1143.73 390.379 1144.7 390.773C1145.7 391.167 1146.85 391.364 1148.15 391.364C1149.06 391.364 1149.97 391.288 1150.88 391.136C1151.79 390.955 1152.49 390.818 1152.97 390.727L1156.02 405.136C1155.05 405.439 1153.68 405.788 1151.93 406.182C1150.17 406.606 1148.03 406.864 1145.52 406.955C1140.85 407.136 1136.76 406.515 1133.24 405.091C1129.76 403.667 1127.05 401.455 1125.11 398.455C1123.17 395.455 1122.21 391.667 1122.24 387.091V319.455ZM1231.17 336.182L1206.76 406H1184.94L1160.53 336.182H1180.99L1195.49 386.136H1196.21L1210.67 336.182H1231.17ZM1269.37 407.364C1262.18 407.364 1256 405.909 1250.82 403C1245.67 400.061 1241.7 395.909 1238.91 390.545C1236.12 385.152 1234.73 378.773 1234.73 371.409C1234.73 364.227 1236.12 357.924 1238.91 352.5C1241.7 347.076 1245.62 342.848 1250.68 339.818C1255.77 336.788 1261.74 335.273 1268.59 335.273C1273.2 335.273 1277.49 336.015 1281.46 337.5C1285.46 338.955 1288.94 341.152 1291.91 344.091C1294.91 347.03 1297.24 350.727 1298.91 355.182C1300.58 359.606 1301.41 364.788 1301.41 370.727V376.045H1242.46V364.045H1283.18C1283.18 361.258 1282.58 358.788 1281.37 356.636C1280.15 354.485 1278.47 352.803 1276.32 351.591C1274.2 350.348 1271.73 349.727 1268.91 349.727C1265.97 349.727 1263.37 350.409 1261.09 351.773C1258.85 353.106 1257.09 354.909 1255.82 357.182C1254.55 359.424 1253.9 361.924 1253.87 364.682V376.091C1253.87 379.545 1254.5 382.53 1255.77 385.045C1257.08 387.561 1258.91 389.5 1261.27 390.864C1263.64 392.227 1266.44 392.909 1269.68 392.909C1271.84 392.909 1273.8 392.606 1275.59 392C1277.38 391.394 1278.91 390.485 1280.18 389.273C1281.46 388.061 1282.43 386.576 1283.09 384.818L1301 386C1300.09 390.303 1298.23 394.061 1295.41 397.273C1292.62 400.455 1289.02 402.939 1284.59 404.727C1280.2 406.485 1275.12 407.364 1269.37 407.364ZM1312.77 406V336.182H1331.54V348.364H1332.27C1333.54 344.03 1335.68 340.758 1338.68 338.545C1341.68 336.303 1345.13 335.182 1349.04 335.182C1350.01 335.182 1351.06 335.242 1352.18 335.364C1353.3 335.485 1354.28 335.652 1355.13 335.864V353.045C1354.22 352.773 1352.96 352.53 1351.36 352.318C1349.75 352.106 1348.28 352 1346.95 352C1344.1 352 1341.56 352.621 1339.31 353.864C1337.1 355.076 1335.34 356.773 1334.04 358.955C1332.77 361.136 1332.13 363.652 1332.13 366.5V406H1312.77ZM1421.95 356.091L1404.23 357.182C1403.92 355.667 1403.27 354.303 1402.27 353.091C1401.27 351.848 1399.95 350.864 1398.32 350.136C1396.71 349.379 1394.79 349 1392.54 349C1389.54 349 1387.01 349.636 1384.95 350.909C1382.89 352.152 1381.86 353.818 1381.86 355.909C1381.86 357.576 1382.53 358.985 1383.86 360.136C1385.2 361.288 1387.48 362.212 1390.73 362.909L1403.36 365.455C1410.15 366.848 1415.21 369.091 1418.54 372.182C1421.88 375.273 1423.54 379.333 1423.54 384.364C1423.54 388.939 1422.2 392.955 1419.5 396.409C1416.83 399.864 1413.17 402.561 1408.5 404.5C1403.86 406.409 1398.51 407.364 1392.45 407.364C1383.21 407.364 1375.85 405.439 1370.36 401.591C1364.91 397.712 1361.71 392.439 1360.77 385.773L1379.82 384.773C1380.39 387.591 1381.79 389.742 1384 391.227C1386.21 392.682 1389.04 393.409 1392.5 393.409C1395.89 393.409 1398.62 392.758 1400.68 391.455C1402.77 390.121 1403.83 388.409 1403.86 386.318C1403.83 384.561 1403.09 383.121 1401.64 382C1400.18 380.848 1397.94 379.97 1394.91 379.364L1382.82 376.955C1376 375.591 1370.92 373.227 1367.59 369.864C1364.29 366.5 1362.64 362.212 1362.64 357C1362.64 352.515 1363.85 348.652 1366.27 345.409C1368.73 342.167 1372.17 339.667 1376.59 337.909C1381.04 336.152 1386.26 335.273 1392.23 335.273C1401.04 335.273 1407.98 337.136 1413.04 340.864C1418.14 344.591 1421.1 349.667 1421.95 356.091ZM1466.28 407.364C1459.09 407.364 1452.91 405.909 1447.73 403C1442.58 400.061 1438.61 395.909 1435.82 390.545C1433.03 385.152 1431.64 378.773 1431.64 371.409C1431.64 364.227 1433.03 357.924 1435.82 352.5C1438.61 347.076 1442.53 342.848 1447.59 339.818C1452.68 336.788 1458.65 335.273 1465.5 335.273C1470.11 335.273 1474.4 336.015 1478.37 337.5C1482.37 338.955 1485.85 341.152 1488.82 344.091C1491.82 347.03 1494.15 350.727 1495.82 355.182C1497.49 359.606 1498.32 364.788 1498.32 370.727V376.045H1439.37V364.045H1480.09C1480.09 361.258 1479.49 358.788 1478.28 356.636C1477.06 354.485 1475.38 352.803 1473.23 351.591C1471.11 350.348 1468.64 349.727 1465.82 349.727C1462.88 349.727 1460.28 350.409 1458 351.773C1455.76 353.106 1454 354.909 1452.73 357.182C1451.46 359.424 1450.81 361.924 1450.78 364.682V376.091C1450.78 379.545 1451.41 382.53 1452.68 385.045C1453.99 387.561 1455.82 389.5 1458.18 390.864C1460.55 392.227 1463.35 392.909 1466.59 392.909C1468.75 392.909 1470.71 392.606 1472.5 392C1474.29 391.394 1475.82 390.485 1477.09 389.273C1478.37 388.061 1479.34 386.576 1480 384.818L1497.91 386C1497 390.303 1495.14 394.061 1492.32 397.273C1489.53 400.455 1485.93 402.939 1481.5 404.727C1477.11 406.485 1472.03 407.364 1466.28 407.364Z" fill="url(#paint2_linear_3570_14843)" style=""/>
<mask id="mask0_3570_14843" style="mask-type:alpha" maskUnits="userSpaceOnUse" x="411" y="-49" width="1098" height="791">
<rect opacity="0.35" x="326" y="360.348" width="1159" height="515.112" rx="257.556" transform="rotate(-25.2475 326 360.348)" fill="#D9D9D9" style="fill:#D9D9D9;fill:color(display-p3 0.8510 0.8510 0.8510);fill-opacity:1;"/>
</mask>
<g mask="url(#mask0_3570_14843)">
<g opacity="0.5">
<line x1="385" y1="31" x2="427" y2="31" stroke="#C28DF8" stroke-opacity="0.62" style="stroke:#C28DF8;stroke:color(display-p3 0.7619 0.5527 0.9710);stroke-opacity:0.62;" stroke-width="6" stroke-linecap="round"/>
<line x1="529" y1="9" x2="529" y2="51" stroke="#C28DF8" stroke-opacity="0.62" style="stroke:#C28DF8;stroke:color(display-p3 0.7619 0.5527 0.9710);stroke-opacity:0.62;" stroke-width="6" stroke-linecap="round"/>
<line x1="508" y1="31" x2="550" y2="31" stroke="#C28DF8" stroke-opacity="0.62" style="stroke:#C28DF8;stroke:color(display-p3 0.7619 0.5527 0.9710);stroke-opacity:0.62;" stroke-width="6" stroke-linecap="round"/>
<line x1="652" y1="9" x2="652" y2="51" stroke="#C28DF8" stroke-opacity="0.62" style="stroke:#C28DF8;stroke:color(display-p3 0.7619 0.5527 0.9710);stroke-opacity:0.62;" stroke-width="6" stroke-linecap="round"/>
<line x1="631" y1="31" x2="673" y2="31" stroke="#C28DF8" stroke-opacity="0.62" style="stroke:#C28DF8;stroke:color(display-p3 0.7619 0.5527 0.9710);stroke-opacity:0.62;" stroke-width="6" stroke-linecap="round"/>
<line x1="775" y1="9" x2="775" y2="51" stroke="#C28DF8" stroke-opacity="0.62" style="stroke:#C28DF8;stroke:color(display-p3 0.7619 0.5527 0.9710);stroke-opacity:0.62;" stroke-width="6" stroke-linecap="round"/>
<line x1="754" y1="31" x2="796" y2="31" stroke="#C28DF8" stroke-opacity="0.62" style="stroke:#C28DF8;stroke:color(display-p3 0.7619 0.5527 0.9710);stroke-opacity:0.62;" stroke-width="6" stroke-linecap="round"/>
<line x1="898" y1="9" x2="898" y2="51" stroke="#C28DF8" stroke-opacity="0.62" style="stroke:#C28DF8;stroke:color(display-p3 0.7619 0.5527 0.9710);stroke-opacity:0.62;" stroke-width="6" stroke-linecap="round"/>
<line x1="877" y1="31" x2="919" y2="31" stroke="#C28DF8" stroke-opacity="0.62" style="stroke:#C28DF8;stroke:color(display-p3 0.7619 0.5527 0.9710);stroke-opacity:0.62;" stroke-width="6" stroke-linecap="round"/>
<line x1="1021" y1="9" x2="1021" y2="51" stroke="#C28DF8" stroke-opacity="0.62" style="stroke:#C28DF8;stroke:color(display-p3 0.7619 0.5527 0.9710);stroke-opacity:0.62;" stroke-width="6" stroke-linecap="round"/>
<line x1="1000" y1="31" x2="1042" y2="31" stroke="#C28DF8" stroke-opacity="0.62" style="stroke:#C28DF8;stroke:color(display-p3 0.7619 0.5527 0.9710);stroke-opacity:0.62;" stroke-width="6" stroke-linecap="round"/>
<line x1="1144" y1="9" x2="1144" y2="51" stroke="#C28DF8" stroke-opacity="0.62" style="stroke:#C28DF8;stroke:color(display-p3 0.7619 0.5527 0.9710);stroke-opacity:0.62;" stroke-width="6" stroke-linecap="round"/>
<line x1="1123" y1="31" x2="1165" y2="31" stroke="#C28DF8" stroke-opacity="0.62" style="stroke:#C28DF8;stroke:color(display-p3 0.7619 0.5527 0.9710);stroke-opacity:0.62;" stroke-width="6" stroke-linecap="round"/>
<line x1="1267" y1="9" x2="1267" y2="51" stroke="#C28DF8" stroke-opacity="0.62" style="stroke:#C28DF8;stroke:color(display-p3 0.7619 0.5527 0.9710);stroke-opacity:0.62;" stroke-width="6" stroke-linecap="round"/>
<line x1="1246" y1="31" x2="1288" y2="31" stroke="#C28DF8" stroke-opacity="0.62" style="stroke:#C28DF8;stroke:color(display-p3 0.7619 0.5527 0.9710);stroke-opacity:0.62;" stroke-width="6" stroke-linecap="round"/>
<line x1="1390" y1="9" x2="1390" y2="51" stroke="#C28DF8" stroke-opacity="0.62" style="stroke:#C28DF8;stroke:color(display-p3 0.7619 0.5527 0.9710);stroke-opacity:0.62;" stroke-width="6" stroke-linecap="round"/>
<line x1="1369" y1="31" x2="1411" y2="31" stroke="#C28DF8" stroke-opacity="0.62" style="stroke:#C28DF8;stroke:color(display-p3 0.7619 0.5527 0.9710);stroke-opacity:0.62;" stroke-width="6" stroke-linecap="round"/>
<line x1="1492" y1="31" x2="1534" y2="31" stroke="#C28DF8" stroke-opacity="0.62" style="stroke:#C28DF8;stroke:color(display-p3 0.7619 0.5527 0.9710);stroke-opacity:0.62;" stroke-width="6" stroke-linecap="round"/>
<line x1="385" y1="163" x2="427" y2="163" stroke="#C28DF8" stroke-opacity="0.62" style="stroke:#C28DF8;stroke:color(display-p3 0.7619 0.5527 0.9710);stroke-opacity:0.62;" stroke-width="6" stroke-linecap="round"/>
<line x1="529" y1="141" x2="529" y2="183" stroke="#C28DF8" stroke-opacity="0.62" style="stroke:#C28DF8;stroke:color(display-p3 0.7619 0.5527 0.9710);stroke-opacity:0.62;" stroke-width="6" stroke-linecap="round"/>
<line x1="508" y1="163" x2="550" y2="163" stroke="#C28DF8" stroke-opacity="0.62" style="stroke:#C28DF8;stroke:color(display-p3 0.7619 0.5527 0.9710);stroke-opacity:0.62;" stroke-width="6" stroke-linecap="round"/>
<line x1="652" y1="141" x2="652" y2="183" stroke="#C28DF8" stroke-opacity="0.62" style="stroke:#C28DF8;stroke:color(display-p3 0.7619 0.5527 0.9710);stroke-opacity:0.62;" stroke-width="6" stroke-linecap="round"/>
<line x1="631" y1="163" x2="673" y2="163" stroke="#C28DF8" stroke-opacity="0.62" style="stroke:#C28DF8;stroke:color(display-p3 0.7619 0.5527 0.9710);stroke-opacity:0.62;" stroke-width="6" stroke-linecap="round"/>
<line x1="775" y1="141" x2="775" y2="183" stroke="#C28DF8" stroke-opacity="0.62" style="stroke:#C28DF8;stroke:color(display-p3 0.7619 0.5527 0.9710);stroke-opacity:0.62;" stroke-width="6" stroke-linecap="round"/>
<line x1="754" y1="163" x2="796" y2="163" stroke="#C28DF8" stroke-opacity="0.62" style="stroke:#C28DF8;stroke:color(display-p3 0.7619 0.5527 0.9710);stroke-opacity:0.62;" stroke-width="6" stroke-linecap="round"/>
<line x1="898" y1="141" x2="898" y2="183" stroke="#C28DF8" stroke-opacity="0.62" style="stroke:#C28DF8;stroke:color(display-p3 0.7619 0.5527 0.9710);stroke-opacity:0.62;" stroke-width="6" stroke-linecap="round"/>
<line x1="877" y1="163" x2="919" y2="163" stroke="#C28DF8" stroke-opacity="0.62" style="stroke:#C28DF8;stroke:color(display-p3 0.7619 0.5527 0.9710);stroke-opacity:0.62;" stroke-width="6" stroke-linecap="round"/>
<line x1="1021" y1="141" x2="1021" y2="183" stroke="#C28DF8" stroke-opacity="0.62" style="stroke:#C28DF8;stroke:color(display-p3 0.7619 0.5527 0.9710);stroke-opacity:0.62;" stroke-width="6" stroke-linecap="round"/>
<line x1="1000" y1="163" x2="1042" y2="163" stroke="#C28DF8" stroke-opacity="0.62" style="stroke:#C28DF8;stroke:color(display-p3 0.7619 0.5527 0.9710);stroke-opacity:0.62;" stroke-width="6" stroke-linecap="round"/>
<line x1="1144" y1="141" x2="1144" y2="183" stroke="#C28DF8" stroke-opacity="0.62" style="stroke:#C28DF8;stroke:color(display-p3 0.7619 0.5527 0.9710);stroke-opacity:0.62;" stroke-width="6" stroke-linecap="round"/>
<line x1="1123" y1="163" x2="1165" y2="163" stroke="#C28DF8" stroke-opacity="0.62" style="stroke:#C28DF8;stroke:color(display-p3 0.7619 0.5527 0.9710);stroke-opacity:0.62;" stroke-width="6" stroke-linecap="round"/>
<line x1="1267" y1="141" x2="1267" y2="183" stroke="#C28DF8" stroke-opacity="0.62" style="stroke:#C28DF8;stroke:color(display-p3 0.7619 0.5527 0.9710);stroke-opacity:0.62;" stroke-width="6" stroke-linecap="round"/>
<line x1="1246" y1="163" x2="1288" y2="163" stroke="#C28DF8" stroke-opacity="0.62" style="stroke:#C28DF8;stroke:color(display-p3 0.7619 0.5527 0.9710);stroke-opacity:0.62;" stroke-width="6" stroke-linecap="round"/>
<line x1="1390" y1="141" x2="1390" y2="183" stroke="#C28DF8" stroke-opacity="0.62" style="stroke:#C28DF8;stroke:color(display-p3 0.7619 0.5527 0.9710);stroke-opacity:0.62;" stroke-width="6" stroke-linecap="round"/>
<line x1="1369" y1="163" x2="1411" y2="163" stroke="#C28DF8" stroke-opacity="0.62" style="stroke:#C28DF8;stroke:color(display-p3 0.7619 0.5527 0.9710);stroke-opacity:0.62;" stroke-width="6" stroke-linecap="round"/>
<line x1="1492" y1="163" x2="1534" y2="163" stroke="#C28DF8" stroke-opacity="0.62" style="stroke:#C28DF8;stroke:color(display-p3 0.7619 0.5527 0.9710);stroke-opacity:0.62;" stroke-width="6" stroke-linecap="round"/>
<line x1="385" y1="295" x2="427" y2="295" stroke="#C28DF8" stroke-opacity="0.62" style="stroke:#C28DF8;stroke:color(display-p3 0.7619 0.5527 0.9710);stroke-opacity:0.62;" stroke-width="6" stroke-linecap="round"/>
<line x1="529" y1="273" x2="529" y2="315" stroke="#C28DF8" stroke-opacity="0.62" style="stroke:#C28DF8;stroke:color(display-p3 0.7619 0.5527 0.9710);stroke-opacity:0.62;" stroke-width="6" stroke-linecap="round"/>
<line x1="508" y1="295" x2="550" y2="295" stroke="#C28DF8" stroke-opacity="0.62" style="stroke:#C28DF8;stroke:color(display-p3 0.7619 0.5527 0.9710);stroke-opacity:0.62;" stroke-width="6" stroke-linecap="round"/>
<line x1="652" y1="273" x2="652" y2="315" stroke="#C28DF8" stroke-opacity="0.62" style="stroke:#C28DF8;stroke:color(display-p3 0.7619 0.5527 0.9710);stroke-opacity:0.62;" stroke-width="6" stroke-linecap="round"/>
<line x1="631" y1="295" x2="673" y2="295" stroke="#C28DF8" stroke-opacity="0.62" style="stroke:#C28DF8;stroke:color(display-p3 0.7619 0.5527 0.9710);stroke-opacity:0.62;" stroke-width="6" stroke-linecap="round"/>
<line x1="775" y1="273" x2="775" y2="315" stroke="#C28DF8" stroke-opacity="0.62" style="stroke:#C28DF8;stroke:color(display-p3 0.7619 0.5527 0.9710);stroke-opacity:0.62;" stroke-width="6" stroke-linecap="round"/>
<line x1="754" y1="295" x2="796" y2="295" stroke="#C28DF8" stroke-opacity="0.62" style="stroke:#C28DF8;stroke:color(display-p3 0.7619 0.5527 0.9710);stroke-opacity:0.62;" stroke-width="6" stroke-linecap="round"/>
<line x1="898" y1="273" x2="898" y2="315" stroke="#C28DF8" stroke-opacity="0.62" style="stroke:#C28DF8;stroke:color(display-p3 0.7619 0.5527 0.9710);stroke-opacity:0.62;" stroke-width="6" stroke-linecap="round"/>
<line x1="877" y1="295" x2="919" y2="295" stroke="#C28DF8" stroke-opacity="0.62" style="stroke:#C28DF8;stroke:color(display-p3 0.7619 0.5527 0.9710);stroke-opacity:0.62;" stroke-width="6" stroke-linecap="round"/>
<line x1="1021" y1="273" x2="1021" y2="315" stroke="#C28DF8" stroke-opacity="0.62" style="stroke:#C28DF8;stroke:color(display-p3 0.7619 0.5527 0.9710);stroke-opacity:0.62;" stroke-width="6" stroke-linecap="round"/>
<line x1="1000" y1="295" x2="1042" y2="295" stroke="#C28DF8" stroke-opacity="0.62" style="stroke:#C28DF8;stroke:color(display-p3 0.7619 0.5527 0.9710);stroke-opacity:0.62;" stroke-width="6" stroke-linecap="round"/>
<line x1="1144" y1="273" x2="1144" y2="315" stroke="#C28DF8" stroke-opacity="0.62" style="stroke:#C28DF8;stroke:color(display-p3 0.7619 0.5527 0.9710);stroke-opacity:0.62;" stroke-width="6" stroke-linecap="round"/>
<line x1="1123" y1="295" x2="1165" y2="295" stroke="#C28DF8" stroke-opacity="0.62" style="stroke:#C28DF8;stroke:color(display-p3 0.7619 0.5527 0.9710);stroke-opacity:0.62;" stroke-width="6" stroke-linecap="round"/>
<line x1="1267" y1="273" x2="1267" y2="315" stroke="#C28DF8" stroke-opacity="0.62" style="stroke:#C28DF8;stroke:color(display-p3 0.7619 0.5527 0.9710);stroke-opacity:0.62;" stroke-width="6" stroke-linecap="round"/>
<line x1="1246" y1="295" x2="1288" y2="295" stroke="#C28DF8" stroke-opacity="0.62" style="stroke:#C28DF8;stroke:color(display-p3 0.7619 0.5527 0.9710);stroke-opacity:0.62;" stroke-width="6" stroke-linecap="round"/>
<line x1="1390" y1="273" x2="1390" y2="315" stroke="#C28DF8" stroke-opacity="0.62" style="stroke:#C28DF8;stroke:color(display-p3 0.7619 0.5527 0.9710);stroke-opacity:0.62;" stroke-width="6" stroke-linecap="round"/>
<line x1="1369" y1="295" x2="1411" y2="295" stroke="#C28DF8" stroke-opacity="0.62" style="stroke:#C28DF8;stroke:color(display-p3 0.7619 0.5527 0.9710);stroke-opacity:0.62;" stroke-width="6" stroke-linecap="round"/>
<line x1="1492" y1="295" x2="1534" y2="295" stroke="#C28DF8" stroke-opacity="0.62" style="stroke:#C28DF8;stroke:color(display-p3 0.7619 0.5527 0.9710);stroke-opacity:0.62;" stroke-width="6" stroke-linecap="round"/>
<line x1="385" y1="427" x2="427" y2="427" stroke="#C28DF8" stroke-opacity="0.62" style="stroke:#C28DF8;stroke:color(display-p3 0.7619 0.5527 0.9710);stroke-opacity:0.62;" stroke-width="6" stroke-linecap="round"/>
<line x1="529" y1="405" x2="529" y2="447" stroke="#C28DF8" stroke-opacity="0.62" style="stroke:#C28DF8;stroke:color(display-p3 0.7619 0.5527 0.9710);stroke-opacity:0.62;" stroke-width="6" stroke-linecap="round"/>
<line x1="508" y1="427" x2="550" y2="427" stroke="#C28DF8" stroke-opacity="0.62" style="stroke:#C28DF8;stroke:color(display-p3 0.7619 0.5527 0.9710);stroke-opacity:0.62;" stroke-width="6" stroke-linecap="round"/>
<line x1="652" y1="405" x2="652" y2="447" stroke="#C28DF8" stroke-opacity="0.62" style="stroke:#C28DF8;stroke:color(display-p3 0.7619 0.5527 0.9710);stroke-opacity:0.62;" stroke-width="6" stroke-linecap="round"/>
<line x1="631" y1="427" x2="673" y2="427" stroke="#C28DF8" stroke-opacity="0.62" style="stroke:#C28DF8;stroke:color(display-p3 0.7619 0.5527 0.9710);stroke-opacity:0.62;" stroke-width="6" stroke-linecap="round"/>
<line x1="775" y1="405" x2="775" y2="447" stroke="#C28DF8" stroke-opacity="0.62" style="stroke:#C28DF8;stroke:color(display-p3 0.7619 0.5527 0.9710);stroke-opacity:0.62;" stroke-width="6" stroke-linecap="round"/>
<line x1="754" y1="427" x2="796" y2="427" stroke="#C28DF8" stroke-opacity="0.62" style="stroke:#C28DF8;stroke:color(display-p3 0.7619 0.5527 0.9710);stroke-opacity:0.62;" stroke-width="6" stroke-linecap="round"/>
<line x1="898" y1="405" x2="898" y2="447" stroke="#C28DF8" stroke-opacity="0.62" style="stroke:#C28DF8;stroke:color(display-p3 0.7619 0.5527 0.9710);stroke-opacity:0.62;" stroke-width="6" stroke-linecap="round"/>
<line x1="877" y1="427" x2="919" y2="427" stroke="#C28DF8" stroke-opacity="0.62" style="stroke:#C28DF8;stroke:color(display-p3 0.7619 0.5527 0.9710);stroke-opacity:0.62;" stroke-width="6" stroke-linecap="round"/>
<line x1="1021" y1="405" x2="1021" y2="447" stroke="#C28DF8" stroke-opacity="0.62" style="stroke:#C28DF8;stroke:color(display-p3 0.7619 0.5527 0.9710);stroke-opacity:0.62;" stroke-width="6" stroke-linecap="round"/>
<line x1="1000" y1="427" x2="1042" y2="427" stroke="#C28DF8" stroke-opacity="0.62" style="stroke:#C28DF8;stroke:color(display-p3 0.7619 0.5527 0.9710);stroke-opacity:0.62;" stroke-width="6" stroke-linecap="round"/>
<line x1="1144" y1="405" x2="1144" y2="447" stroke="#C28DF8" stroke-opacity="0.62" style="stroke:#C28DF8;stroke:color(display-p3 0.7619 0.5527 0.9710);stroke-opacity:0.62;" stroke-width="6" stroke-linecap="round"/>
<line x1="1123" y1="427" x2="1165" y2="427" stroke="#C28DF8" stroke-opacity="0.62" style="stroke:#C28DF8;stroke:color(display-p3 0.7619 0.5527 0.9710);stroke-opacity:0.62;" stroke-width="6" stroke-linecap="round"/>
<line x1="1267" y1="405" x2="1267" y2="447" stroke="#C28DF8" stroke-opacity="0.62" style="stroke:#C28DF8;stroke:color(display-p3 0.7619 0.5527 0.9710);stroke-opacity:0.62;" stroke-width="6" stroke-linecap="round"/>
<line x1="1246" y1="427" x2="1288" y2="427" stroke="#C28DF8" stroke-opacity="0.62" style="stroke:#C28DF8;stroke:color(display-p3 0.7619 0.5527 0.9710);stroke-opacity:0.62;" stroke-width="6" stroke-linecap="round"/>
<line x1="1390" y1="405" x2="1390" y2="447" stroke="#C28DF8" stroke-opacity="0.62" style="stroke:#C28DF8;stroke:color(display-p3 0.7619 0.5527 0.9710);stroke-opacity:0.62;" stroke-width="6" stroke-linecap="round"/>
<line x1="1369" y1="427" x2="1411" y2="427" stroke="#C28DF8" stroke-opacity="0.62" style="stroke:#C28DF8;stroke:color(display-p3 0.7619 0.5527 0.9710);stroke-opacity:0.62;" stroke-width="6" stroke-linecap="round"/>
<line x1="1492" y1="427" x2="1534" y2="427" stroke="#C28DF8" stroke-opacity="0.62" style="stroke:#C28DF8;stroke:color(display-p3 0.7619 0.5527 0.9710);stroke-opacity:0.62;" stroke-width="6" stroke-linecap="round"/>
<line x1="385" y1="559" x2="427" y2="559" stroke="#C28DF8" stroke-opacity="0.62" style="stroke:#C28DF8;stroke:color(display-p3 0.7619 0.5527 0.9710);stroke-opacity:0.62;" stroke-width="6" stroke-linecap="round"/>
<line x1="529" y1="537" x2="529" y2="579" stroke="#C28DF8" stroke-opacity="0.62" style="stroke:#C28DF8;stroke:color(display-p3 0.7619 0.5527 0.9710);stroke-opacity:0.62;" stroke-width="6" stroke-linecap="round"/>
<line x1="508" y1="559" x2="550" y2="559" stroke="#C28DF8" stroke-opacity="0.62" style="stroke:#C28DF8;stroke:color(display-p3 0.7619 0.5527 0.9710);stroke-opacity:0.62;" stroke-width="6" stroke-linecap="round"/>
<line x1="652" y1="537" x2="652" y2="579" stroke="#C28DF8" stroke-opacity="0.62" style="stroke:#C28DF8;stroke:color(display-p3 0.7619 0.5527 0.9710);stroke-opacity:0.62;" stroke-width="6" stroke-linecap="round"/>
<line x1="631" y1="559" x2="673" y2="559" stroke="#C28DF8" stroke-opacity="0.62" style="stroke:#C28DF8;stroke:color(display-p3 0.7619 0.5527 0.9710);stroke-opacity:0.62;" stroke-width="6" stroke-linecap="round"/>
<line x1="775" y1="537" x2="775" y2="579" stroke="#C28DF8" stroke-opacity="0.62" style="stroke:#C28DF8;stroke:color(display-p3 0.7619 0.5527 0.9710);stroke-opacity:0.62;" stroke-width="6" stroke-linecap="round"/>
<line x1="754" y1="559" x2="796" y2="559" stroke="#C28DF8" stroke-opacity="0.62" style="stroke:#C28DF8;stroke:color(display-p3 0.7619 0.5527 0.9710);stroke-opacity:0.62;" stroke-width="6" stroke-linecap="round"/>
<line x1="898" y1="537" x2="898" y2="579" stroke="#C28DF8" stroke-opacity="0.62" style="stroke:#C28DF8;stroke:color(display-p3 0.7619 0.5527 0.9710);stroke-opacity:0.62;" stroke-width="6" stroke-linecap="round"/>
<line x1="877" y1="559" x2="919" y2="559" stroke="#C28DF8" stroke-opacity="0.62" style="stroke:#C28DF8;stroke:color(display-p3 0.7619 0.5527 0.9710);stroke-opacity:0.62;" stroke-width="6" stroke-linecap="round"/>
<line x1="1021" y1="537" x2="1021" y2="579" stroke="#C28DF8" stroke-opacity="0.62" style="stroke:#C28DF8;stroke:color(display-p3 0.7619 0.5527 0.9710);stroke-opacity:0.62;" stroke-width="6" stroke-linecap="round"/>
<line x1="1000" y1="559" x2="1042" y2="559" stroke="#C28DF8" stroke-opacity="0.62" style="stroke:#C28DF8;stroke:color(display-p3 0.7619 0.5527 0.9710);stroke-opacity:0.62;" stroke-width="6" stroke-linecap="round"/>
<line x1="1144" y1="537" x2="1144" y2="579" stroke="#C28DF8" stroke-opacity="0.62" style="stroke:#C28DF8;stroke:color(display-p3 0.7619 0.5527 0.9710);stroke-opacity:0.62;" stroke-width="6" stroke-linecap="round"/>
<line x1="1123" y1="559" x2="1165" y2="559" stroke="#C28DF8" stroke-opacity="0.62" style="stroke:#C28DF8;stroke:color(display-p3 0.7619 0.5527 0.9710);stroke-opacity:0.62;" stroke-width="6" stroke-linecap="round"/>
<line x1="1267" y1="537" x2="1267" y2="579" stroke="#C28DF8" stroke-opacity="0.62" style="stroke:#C28DF8;stroke:color(display-p3 0.7619 0.5527 0.9710);stroke-opacity:0.62;" stroke-width="6" stroke-linecap="round"/>
<line x1="1246" y1="559" x2="1288" y2="559" stroke="#C28DF8" stroke-opacity="0.62" style="stroke:#C28DF8;stroke:color(display-p3 0.7619 0.5527 0.9710);stroke-opacity:0.62;" stroke-width="6" stroke-linecap="round"/>
<line x1="1390" y1="537" x2="1390" y2="579" stroke="#C28DF8" stroke-opacity="0.62" style="stroke:#C28DF8;stroke:color(display-p3 0.7619 0.5527 0.9710);stroke-opacity:0.62;" stroke-width="6" stroke-linecap="round"/>
<line x1="1369" y1="559" x2="1411" y2="559" stroke="#C28DF8" stroke-opacity="0.62" style="stroke:#C28DF8;stroke:color(display-p3 0.7619 0.5527 0.9710);stroke-opacity:0.62;" stroke-width="6" stroke-linecap="round"/>
<line x1="1492" y1="559" x2="1534" y2="559" stroke="#C28DF8" stroke-opacity="0.62" style="stroke:#C28DF8;stroke:color(display-p3 0.7619 0.5527 0.9710);stroke-opacity:0.62;" stroke-width="6" stroke-linecap="round"/>
<line x1="385" y1="691" x2="427" y2="691" stroke="#C28DF8" stroke-opacity="0.62" style="stroke:#C28DF8;stroke:color(display-p3 0.7619 0.5527 0.9710);stroke-opacity:0.62;" stroke-width="6" stroke-linecap="round"/>
<line x1="529" y1="669" x2="529" y2="711" stroke="#C28DF8" stroke-opacity="0.62" style="stroke:#C28DF8;stroke:color(display-p3 0.7619 0.5527 0.9710);stroke-opacity:0.62;" stroke-width="6" stroke-linecap="round"/>
<line x1="508" y1="691" x2="550" y2="691" stroke="#C28DF8" stroke-opacity="0.62" style="stroke:#C28DF8;stroke:color(display-p3 0.7619 0.5527 0.9710);stroke-opacity:0.62;" stroke-width="6" stroke-linecap="round"/>
<line x1="652" y1="669" x2="652" y2="711" stroke="#C28DF8" stroke-opacity="0.62" style="stroke:#C28DF8;stroke:color(display-p3 0.7619 0.5527 0.9710);stroke-opacity:0.62;" stroke-width="6" stroke-linecap="round"/>
<line x1="631" y1="691" x2="673" y2="691" stroke="#C28DF8" stroke-opacity="0.62" style="stroke:#C28DF8;stroke:color(display-p3 0.7619 0.5527 0.9710);stroke-opacity:0.62;" stroke-width="6" stroke-linecap="round"/>
<line x1="775" y1="669" x2="775" y2="711" stroke="#C28DF8" stroke-opacity="0.62" style="stroke:#C28DF8;stroke:color(display-p3 0.7619 0.5527 0.9710);stroke-opacity:0.62;" stroke-width="6" stroke-linecap="round"/>
<line x1="754" y1="691" x2="796" y2="691" stroke="#C28DF8" stroke-opacity="0.62" style="stroke:#C28DF8;stroke:color(display-p3 0.7619 0.5527 0.9710);stroke-opacity:0.62;" stroke-width="6" stroke-linecap="round"/>
<line x1="898" y1="669" x2="898" y2="711" stroke="#C28DF8" stroke-opacity="0.62" style="stroke:#C28DF8;stroke:color(display-p3 0.7619 0.5527 0.9710);stroke-opacity:0.62;" stroke-width="6" stroke-linecap="round"/>
<line x1="877" y1="691" x2="919" y2="691" stroke="#C28DF8" stroke-opacity="0.62" style="stroke:#C28DF8;stroke:color(display-p3 0.7619 0.5527 0.9710);stroke-opacity:0.62;" stroke-width="6" stroke-linecap="round"/>
<line x1="1021" y1="669" x2="1021" y2="711" stroke="#C28DF8" stroke-opacity="0.62" style="stroke:#C28DF8;stroke:color(display-p3 0.7619 0.5527 0.9710);stroke-opacity:0.62;" stroke-width="6" stroke-linecap="round"/>
<line x1="1000" y1="691" x2="1042" y2="691" stroke="#C28DF8" stroke-opacity="0.62" style="stroke:#C28DF8;stroke:color(display-p3 0.7619 0.5527 0.9710);stroke-opacity:0.62;" stroke-width="6" stroke-linecap="round"/>
<line x1="1144" y1="669" x2="1144" y2="711" stroke="#C28DF8" stroke-opacity="0.62" style="stroke:#C28DF8;stroke:color(display-p3 0.7619 0.5527 0.9710);stroke-opacity:0.62;" stroke-width="6" stroke-linecap="round"/>
<line x1="1123" y1="691" x2="1165" y2="691" stroke="#C28DF8" stroke-opacity="0.62" style="stroke:#C28DF8;stroke:color(display-p3 0.7619 0.5527 0.9710);stroke-opacity:0.62;" stroke-width="6" stroke-linecap="round"/>
<line x1="1267" y1="669" x2="1267" y2="711" stroke="#C28DF8" stroke-opacity="0.62" style="stroke:#C28DF8;stroke:color(display-p3 0.7619 0.5527 0.9710);stroke-opacity:0.62;" stroke-width="6" stroke-linecap="round"/>
<line x1="1246" y1="691" x2="1288" y2="691" stroke="#C28DF8" stroke-opacity="0.62" style="stroke:#C28DF8;stroke:color(display-p3 0.7619 0.5527 0.9710);stroke-opacity:0.62;" stroke-width="6" stroke-linecap="round"/>
<line x1="1390" y1="669" x2="1390" y2="711" stroke="#C28DF8" stroke-opacity="0.62" style="stroke:#C28DF8;stroke:color(display-p3 0.7619 0.5527 0.9710);stroke-opacity:0.62;" stroke-width="6" stroke-linecap="round"/>
<line x1="1369" y1="691" x2="1411" y2="691" stroke="#C28DF8" stroke-opacity="0.62" style="stroke:#C28DF8;stroke:color(display-p3 0.7619 0.5527 0.9710);stroke-opacity:0.62;" stroke-width="6" stroke-linecap="round"/>
<line x1="1492" y1="691" x2="1534" y2="691" stroke="#C28DF8" stroke-opacity="0.62" style="stroke:#C28DF8;stroke:color(display-p3 0.7619 0.5527 0.9710);stroke-opacity:0.62;" stroke-width="6" stroke-linecap="round"/>
</g>
</g>
</g>
<defs>
<filter id="filter0_f_3570_14843" x="-437" y="-95" width="2956.09" height="1314.83" filterUnits="userSpaceOnUse" color-interpolation-filters="sRGB">
<feFlood flood-opacity="0" result="BackgroundImageFix"/>
<feBlend mode="normal" in="SourceGraphic" in2="BackgroundImageFix" result="shape"/>
<feGaussianBlur stdDeviation="250" result="effect1_foregroundBlur_3570_14843"/>
</filter>
<filter id="filter1_f_3570_14843" x="-637" y="-606" width="3028.59" height="1826.26" filterUnits="userSpaceOnUse" color-interpolation-filters="sRGB">
<feFlood flood-opacity="0" result="BackgroundImageFix"/>
<feBlend mode="normal" in="SourceGraphic" in2="BackgroundImageFix" result="shape"/>
<feGaussianBlur stdDeviation="250" result="effect1_foregroundBlur_3570_14843"/>
</filter>
<linearGradient id="paint0_linear_3570_14843" x1="137.053" y1="2.04158e-05" x2="938.476" y2="776.263" gradientUnits="userSpaceOnUse">
<stop stop-color="#521BF0" style="stop-color:#521BF0;stop-color:color(display-p3 0.3231 0.1059 0.9412);stop-opacity:1;"/>
<stop offset="1" stop-color="#36CAF9" style="stop-color:#36CAF9;stop-color:color(display-p3 0.2118 0.7929 0.9765);stop-opacity:1;"/>
</linearGradient>
<linearGradient id="paint1_linear_3570_14843" x1="147.489" y1="2.04858e-05" x2="951.485" y2="835.192" gradientUnits="userSpaceOnUse">
<stop stop-color="#F01BE0" style="stop-color:#F01BE0;stop-color:color(display-p3 0.9412 0.1059 0.8784);stop-opacity:1;"/>
<stop offset="1" stop-color="#366BF9" style="stop-color:#366BF9;stop-color:color(display-p3 0.2118 0.4196 0.9765);stop-opacity:1;"/>
</linearGradient>
<linearGradient id="paint2_linear_3570_14843" x1="780" y1="424.834" x2="1471.78" y2="272.167" gradientUnits="userSpaceOnUse">
<stop style="stop-color:black;stop-opacity:1;"/>
<stop offset="0.0001" stop-color="#2FADF5" style="stop-color:#2FADF5;stop-color:color(display-p3 0.1843 0.6784 0.9608);stop-opacity:1;"/>
<stop offset="1" stop-color="#F713DD" style="stop-color:#F713DD;stop-color:color(display-p3 0.9686 0.0745 0.8667);stop-opacity:1;"/>
</linearGradient>
<clipPath id="clip0_3570_14843">
<rect width="1920" height="720" fill="white" style="fill:white;fill-opacity:1;"/>
</clipPath>
</defs>
</svg>
